<svg xmlns="http://www.w3.org/2000/svg" viewBox="9.615710449218767 14.300000000000004 480.76857910156247 121.39999999999999" style="background: none;" preserveAspectRatio="xMidYMid">
  <filter id="editing-goldstamp">
    <feFlood flood-color="none" result="flood">
    </feFlood>
    <feMorphology operator="dilate" radius="2" in="SourceGraphic" result="outline">
    </feMorphology>
    <feComposite operator="in" in="flood" in2="outline" result="outline2">
    </feComposite>
    <feGaussianBlur stdDeviation="4" in="SourceAlpha" result="blur">
    </feGaussianBlur>
    <feSpecularLighting surfaceScale="2" specularConstant="0.7" specularExponent="10" lighting-color="#white" in="blur" result="specular">
      <fePointLight x="200" y="-1000" z="300">
      </fePointLight>
    </feSpecularLighting>
    <feComposite operator="in" in="specular" in2="SourceGraphic" result="specular2">
    </feComposite>
    <feComposite in="SourceGraphic" in2="specular2" operator="arithmetic" k1="3" k2="2" k3="1" k4="0" result="specular3">
    </feComposite>
    <feMerge>
      <feMergeNode in="outline2">
      </feMergeNode>
      <feMergeNode in="specular3">
      </feMergeNode>
    </feMerge>
  </filter>
  <g filter="url(#editing-goldstamp)">
    <g transform="translate(80.87786650657654, 104.76000213623047)">
      <path d="M28.16 1.28L28.16 1.28L28.16 1.28Q20.42 1.28 20.42-4.74L20.42-4.74L20.42-4.74Q20.48-6.40 20.99-9.22L20.99-9.22L22.14-15.10L22.14-15.10Q23.87-23.42 23.87-25.28L23.87-25.28L23.87-25.28Q23.87-28.99 21.70-28.99L21.70-28.99L21.70-28.99Q18.05-28.99 16.13-19.46L16.13-19.46L12.35 0L-0.51 1.28L6.14-32.70L16.64-33.92L15.62-27.65L15.62-27.65Q18.62-33.92 27.84-33.92L27.84-33.92L27.84-33.92Q32.32-33.92 34.21-32.03L34.21-32.03L34.21-32.03Q36.10-30.14 36.10-25.92L36.10-25.92L36.10-25.92Q36.10-21.95 34.05-12.67L34.05-12.67L34.05-12.67Q33.09-8.51 33.09-6.94L33.09-6.94L33.09-6.94Q33.09-5.38 33.95-4.48L33.95-4.48L33.95-4.48Q34.82-3.58 36.10-3.46L36.10-3.46L36.10-3.46Q35.46-1.28 33.25 0L33.25 0L33.25 0Q31.04 1.28 28.16 1.28ZM44-1.92L44-1.92L44-1.92Q42.50-3.58 41.82-6.21L41.82-6.21L41.82-6.21Q41.15-8.83 41.15-13.12L41.15-13.12L41.15-13.12Q41.15-17.41 42.62-21.31L42.62-21.31L42.62-21.31Q44.10-25.22 46.78-28.03L46.78-28.03L46.78-28.03Q52.29-33.92 61.38-33.92L61.38-33.92L61.38-33.92Q64.64-33.92 67.01-32.83L67.01-32.83L77.95-33.92L73.22-8.96L73.22-8.96Q73.02-8.19 73.02-6.78L73.02-6.78L73.02-6.78Q73.02-5.38 73.89-4.48L73.89-4.48L73.89-4.48Q74.75-3.58 76.03-3.46L76.03-3.46L76.03-3.46Q75.39-1.28 73.06 0L73.06 0L73.06 0Q70.72 1.28 68.10 1.28L68.10 1.28L68.10 1.28Q65.47 1.28 63.71 0.29L63.71 0.29L63.71 0.29Q61.95-0.70 61.44-2.37L61.44-2.37L61.44-2.37Q60.42-0.77 58.24 0.26L58.24 0.26L58.24 0.26Q56.06 1.28 53.15 1.28L53.15 1.28L53.15 1.28Q50.24 1.28 47.87 0.51L47.87 0.51L47.87 0.51Q45.50-0.26 44-1.92ZM57.50-27.90L57.50-27.90L57.50-27.90Q56.77-26.75 56.13-24.80L56.13-24.80L56.13-24.80Q55.49-22.85 54.43-17.63L54.43-17.63L54.43-17.63Q53.38-12.42 53.38-8.70L53.38-8.70L53.38-8.70Q53.38-4.99 53.95-3.90L53.95-3.90L53.95-3.90Q54.53-2.82 55.55-2.82L55.55-2.82L55.55-2.82Q57.60-2.82 59.10-4.77L59.10-4.77L59.10-4.77Q60.61-6.72 61.18-10.18L61.18-10.18L64.58-28.93L64.58-28.93Q63.23-30.08 61.66-30.08L61.66-30.08L61.66-30.08Q60.10-30.08 59.17-29.57L59.17-29.57L59.17-29.57Q58.24-29.06 57.50-27.90ZM127.49 1.28L127.49 1.28L127.49 1.28Q119.74 1.28 119.74-4.74L119.74-4.74L119.74-4.74Q119.74-7.36 120.86-12.45L120.86-12.45L120.86-12.45Q121.98-17.54 122.37-19.58L122.37-19.58L122.37-19.58Q123.26-24.26 123.26-25.73L123.26-25.73L123.26-25.73Q123.26-28.99 120.83-28.99L120.83-28.99L120.83-28.99Q119.23-28.99 117.70-26.78L117.70-26.78L117.70-26.78Q116.16-24.58 115.46-20.16L115.46-20.16L111.49 0L99.01 1.28L102.46-16.13L102.46-16.13Q103.04-19.01 103.55-22.27L103.55-22.27L103.55-22.27Q104.06-25.54 104.06-26.05L104.06-26.05L104.06-26.05Q104.06-28.99 101.89-28.99L101.89-28.99L101.89-28.99Q100.42-28.99 98.82-26.82L98.82-26.82L98.82-26.82Q97.22-24.64 96.32-20.16L96.32-20.16L92.42 0L79.81 1.28L86.53-32.64L96.96-33.92L95.87-27.46L95.87-27.46Q97.54-30.91 100.61-32.42L100.61-32.42L100.61-32.42Q103.68-33.92 108.48-33.92L108.48-33.92L108.48-33.92Q111.23-33.92 113.02-32.58L113.02-32.58L113.02-32.58Q114.82-31.23 115.39-29.06L115.39-29.06L115.39-29.06Q116.48-31.30 119.26-32.61L119.26-32.61L119.26-32.61Q122.05-33.92 125.47-33.92L125.47-33.92L125.47-33.92Q128.90-33.92 130.59-33.18L130.59-33.18L130.59-33.18Q132.29-32.45 133.31-31.23L133.31-31.23L133.31-31.23Q135.04-28.99 135.04-24.90L135.04-24.90L135.04-24.90Q135.04-20.86 133.31-12.48L133.31-12.48L133.31-12.48Q132.42-8.38 132.42-6.88L132.42-6.88L132.42-6.88Q132.42-5.38 133.28-4.48L133.28-4.48L133.28-4.48Q134.14-3.58 135.42-3.46L135.42-3.46L135.42-3.46Q134.78-1.28 132.58 0L132.58 0L132.58 0Q130.37 1.28 127.49 1.28ZM170.18-4.38L170.18-4.38L170.18-4.38Q167.49-1.66 163.81-0.19L163.81-0.19L163.81-0.19Q160.13 1.28 156.48 1.28L156.48 1.28L156.48 1.28Q152.83 1.28 151.55 0.64L151.55 0.64L149.57 11.52L136.58 12.80L145.41-32.64L155.84-33.73L155.01-29.31L155.01-29.31Q157.70-33.86 163.26-33.86L163.26-33.86L163.26-33.86Q169.54-33.86 172.86-29.82L172.86-29.82L172.86-29.82Q175.81-26.18 175.81-20.61L175.81-20.61L175.81-20.61Q175.81-15.04 174.34-11.07L174.34-11.07L174.34-11.07Q172.86-7.10 170.18-4.38ZM155.71-22.34L152.32-3.58L152.32-3.58Q153.66-2.43 155.33-2.43L155.33-2.43L155.33-2.43Q156.99-2.43 157.95-3.07L157.95-3.07L157.95-3.07Q158.91-3.71 159.62-4.99L159.62-4.99L159.62-4.99Q161.54-8.45 163.07-18.94L163.07-18.94L163.07-18.94Q163.52-22.02 163.52-25.02L163.52-25.02L163.52-25.02Q163.52-28.03 162.85-28.99L162.85-28.99L162.85-28.99Q162.18-29.95 160.90-29.95L160.90-29.95L160.90-29.95Q156.99-29.95 155.71-22.34L155.71-22.34ZM194.94-3.52L194.94-3.52L194.94-3.52Q192.96 1.28 186.62 1.28L186.62 1.28L186.62 1.28Q183.42 1.28 181.38-0.96L181.38-0.96L181.38-0.96Q179.71-2.82 179.71-4.93L179.71-4.93L179.71-4.93Q179.71-9.73 181.95-20.22L181.95-20.22L186.62-44.80L199.62-46.08L193.41-13.70L193.41-13.70Q192.32-8.96 192.32-7.30L192.32-7.30L192.32-7.30Q192.32-3.65 194.94-3.52ZM215.74-3.52L215.74-3.52L215.74-3.52Q213.76 1.28 207.42 1.28L207.42 1.28L207.42 1.28Q204.16 1.28 202.11-0.96L202.11-0.96L202.11-0.96Q200.38-2.94 200.38-4.93L200.38-4.93L200.38-4.93Q200.38-10.11 202.75-20.22L202.75-20.22L205.12-32.64L218.11-33.92L214.21-13.70L214.21-13.70Q213.12-8.96 213.12-7.30L213.12-7.30L213.12-7.30Q213.12-3.65 215.74-3.52ZM206.27-41.54L206.27-41.54L206.27-41.54Q206.27-44.03 208.35-45.38L208.35-45.38L208.35-45.38Q210.43-46.72 213.44-46.72L213.44-46.72L213.44-46.72Q216.45-46.72 218.27-45.38L218.27-45.38L218.27-45.38Q220.10-44.03 220.10-41.54L220.10-41.54L220.10-41.54Q220.10-39.04 218.08-37.76L218.08-37.76L218.08-37.76Q216.06-36.48 213.06-36.48L213.06-36.48L213.06-36.48Q210.05-36.48 208.16-37.76L208.16-37.76L208.16-37.76Q206.27-39.04 206.27-41.54ZM246.14-37.12L246.14-37.12L246.14-37.12Q247.04-38.66 247.04-40.32L247.04-40.32L247.04-40.32Q247.04-43.26 245.25-43.26L245.25-43.26L245.25-43.26Q242.50-43.26 241.34-37.63L241.34-37.63L240.38-32.64L246.21-32.64L245.82-29.76L239.81-29.76L234.05 0L221.12 1.28L227.26-29.76L222.72-29.76L223.30-32.64L227.78-32.64L229.12-37.70L229.12-37.70Q230.27-42.37 235.20-44.54L235.20-44.54L235.20-44.54Q238.78-46.08 244.80-46.08L244.80-46.08L244.80-46.08Q250.82-46.08 253.50-44.54L253.50-44.54L253.50-44.54Q256.19-43.01 256.19-40.96L256.19-40.96L256.19-40.96Q256.19-38.91 254.59-37.63L254.59-37.63L254.59-37.63Q252.99-36.35 251.20-36.35L251.20-36.35L251.20-36.35Q247.68-36.35 246.14-37.12ZM266.50-3.52L266.50-3.52L266.50-3.52Q264.51 1.28 258.18 1.28L258.18 1.28L258.18 1.28Q254.91 1.28 252.86-0.96L252.86-0.96L252.86-0.96Q251.14-2.94 251.14-4.93L251.14-4.93L251.14-4.93Q251.14-10.11 253.50-20.22L253.50-20.22L255.87-32.64L268.86-33.92L264.96-13.70L264.96-13.70Q263.87-8.96 263.87-7.30L263.87-7.30L263.87-7.30Q263.87-3.65 266.50-3.52ZM257.02-41.54L257.02-41.54L257.02-41.54Q257.02-44.03 259.10-45.38L259.10-45.38L259.10-45.38Q261.18-46.72 264.19-46.72L264.19-46.72L264.19-46.72Q267.20-46.72 269.02-45.38L269.02-45.38L269.02-45.38Q270.85-44.03 270.85-41.54L270.85-41.54L270.85-41.54Q270.85-39.04 268.83-37.76L268.83-37.76L268.83-37.76Q266.82-36.48 263.81-36.48L263.81-36.48L263.81-36.48Q260.80-36.48 258.91-37.76L258.91-37.76L258.91-37.76Q257.02-39.04 257.02-41.54ZM297.86-10.82L297.86-10.82L297.86-10.82Q299.46-9.73 299.46-7.33L299.46-7.33L299.46-7.33Q299.46-4.93 298.24-3.39L298.24-3.39L298.24-3.39Q297.02-1.86 295.04-0.83L295.04-0.83L295.04-0.83Q290.94 1.28 286.53 1.28L286.53 1.28L286.53 1.28Q282.11 1.28 279.52 0.32L279.52 0.32L279.52 0.32Q276.93-0.64 275.20-2.43L275.20-2.43L275.20-2.43Q271.81-5.82 271.81-12.03L271.81-12.03L271.81-12.03Q271.81-21.70 277.06-27.58L277.06-27.58L277.06-27.58Q282.69-33.92 292.48-33.92L292.48-33.92L292.48-33.92Q298.56-33.92 301.57-31.36L301.57-31.36L301.57-31.36Q303.81-29.44 303.81-26.30L303.81-26.30L303.81-26.30Q303.81-15.04 284.35-15.04L284.35-15.04L284.35-15.04Q284.10-13.38 284.10-11.97L284.10-11.97L284.10-11.97Q284.10-9.02 285.41-7.90L285.41-7.90L285.41-7.90Q286.72-6.78 289.15-6.78L289.15-6.78L289.15-6.78Q291.58-6.78 294.18-7.90L294.18-7.90L294.18-7.90Q296.77-9.02 297.86-10.82ZM284.80-17.79L284.80-17.79L284.80-17.79Q289.34-17.79 291.97-20.61L291.97-20.61L291.97-20.61Q294.59-23.30 294.59-27.58L294.59-27.58L294.59-27.58Q294.59-29.06 294.05-29.86L294.05-29.86L294.05-29.86Q293.50-30.66 292.42-30.66L292.42-30.66L292.42-30.66Q291.33-30.66 290.40-30.24L290.40-30.24L290.40-30.24Q289.47-29.82 288.51-28.42L288.51-28.42L288.51-28.42Q286.14-25.22 284.80-17.79ZM326.02-17.98L326.02-17.98L326.02-17.98Q328.32-22.08 328.32-26.24L328.32-26.24L328.32-26.24Q328.32-28.99 326.34-28.99L326.34-28.99L326.34-28.99Q324.80-28.99 323.20-26.37L323.20-26.37L323.20-26.37Q321.54-23.74 321.02-20.35L321.02-20.35L317.70 0L304.45 1.28L310.98-32.64L321.54-33.92L320.38-27.46L320.38-27.46Q323.52-33.92 330.56-33.92L330.56-33.92L330.56-33.92Q334.27-33.92 336.29-32L336.29-32L336.29-32Q338.30-30.08 338.30-26.14L338.30-26.14L338.30-26.14Q338.30-22.21 335.71-19.71L335.71-19.71L335.71-19.71Q333.12-17.22 328.70-17.22L328.70-17.22L328.70-17.22Q326.78-17.22 326.02-17.98Z" fill="#53462d">
      </path>
    </g>
  </g>
  <style>text {
    font-size: 64px;
    font-family: Arial Black;
    dominant-baseline: central;
    text-anchor: middle;
  }</style>
</svg>
